<svg width="56" height="57" viewBox="0 0 56 57" fill="none" xmlns="http://www.w3.org/2000/svg">
<g clip-path="url(#clip0)">
<path d="M56 29.1546C56 27.2173 55.8426 25.2695 55.5067 23.3635H28.5616V34.3384H43.9918C43.3515 37.8779 41.2941 41.0091 38.2816 42.9988V50.1199H47.4872C52.893 45.1561 56 37.8256 56 29.1546Z" fill="white"/>
<path d="M28.5617 57.0002C36.2663 57.0002 42.7637 54.4764 47.4977 50.12L38.2921 42.9989C35.7309 44.7373 32.4245 45.7217 28.5722 45.7217C21.1195 45.7217 14.8005 40.7055 12.5332 33.9614H3.03365V41.3024C7.88313 50.9263 17.7605 57.0002 28.5617 57.0002Z" fill="white"/>
<path d="M12.5226 33.9615C11.326 30.4219 11.326 26.5891 12.5226 23.0495V15.7085H3.0336C-1.01814 23.7616 -1.01814 33.2494 3.0336 41.3025L12.5226 33.9615Z" fill="white"/>
<path d="M28.5617 11.2787C32.6344 11.2159 36.5706 12.7448 39.5202 15.5514L47.6762 7.41451C42.5118 2.57637 35.6574 -0.0835657 28.5617 0.000211598C17.7605 0.000211598 7.88313 6.07407 3.03365 15.7085L12.5227 23.0495C14.7795 16.2949 21.109 11.2787 28.5617 11.2787Z" fill="white"/>
</g>
<defs>
<clipPath id="clip0">
<rect width="56" height="57" fill="white"/>
</clipPath>
</defs>
</svg>
